<svg width="553" height="145" viewBox="0 0 553 145" fill="none" xmlns="http://www.w3.org/2000/svg">
<g filter="url(#filter0_d_270_439)">
<path d="M89.5709 9.5H111.441V104H89.5709V9.5ZM46.6409 104H24.7709V9.5H46.6409V104ZM91.1909 65.255H45.0209V46.76H91.1909V65.255Z" fill="white"/>
<path d="M155.233 47.57H200.728V64.58H155.233V47.57ZM156.853 86.45H208.288V104H135.118V9.5H206.533V27.05H156.853V86.45Z" fill="white"/>
<path d="M225.953 104V9.5H312.083V104H290.348V22.325L295.343 27.32H242.693L247.688 22.325V104H225.953Z" fill="white"/>
<path d="M324.843 104L366.963 9.5H388.563L430.818 104H407.868L373.308 20.57H381.948L347.253 104H324.843ZM345.903 83.75L351.708 67.145H400.308L406.248 83.75H345.903Z" fill="white"/>
<path d="M444.822 105.485C443.202 105.485 441.492 105.35 439.692 105.08C437.982 104.81 436.092 104.45 434.022 104L435.372 85.505C436.632 85.865 437.937 86.045 439.287 86.045C442.977 86.045 445.857 84.56 447.927 81.59C449.997 78.53 451.482 74.165 452.382 68.495C453.282 62.825 453.867 55.94 454.137 47.84L455.487 9.5H528.117V104H506.517V22.325L511.512 27.32H469.797L474.252 22.055L473.442 47.03C473.172 56.3 472.542 64.535 471.552 71.735C470.562 78.935 469.032 85.055 466.962 90.095C464.892 95.135 462.057 98.96 458.457 101.57C454.857 104.18 450.312 105.485 444.822 105.485Z" fill="white"/>
<path d="M89.5709 7.5H87.5709V9.5V44.76H48.6409V9.5V7.5H46.6409H24.7709H22.7709V9.5V104V106H24.7709H46.6409H48.6409V104V67.255H87.5709V104V106H89.5709H111.441H113.441V104V9.5V7.5H111.441H89.5709ZM158.853 84.45V66.58H200.728H202.728V64.58V47.57V45.57H200.728H158.853V29.05H206.533H208.533V27.05V9.5V7.5H206.533H135.118H133.118V9.5V104V106H135.118H208.288H210.288V104V86.45V84.45H208.288H158.853ZM223.953 104V106H225.953H247.688H249.688V104V29.32H288.348V104V106H290.348H312.083H314.083V104V9.5V7.5H312.083H225.953H223.953V9.5V104ZM323.016 103.186L321.762 106H324.843H347.253H348.587L349.1 104.768L357.009 85.75H398.143L406.02 104.765L406.532 106H407.868H430.818H433.808C435.826 106.435 437.684 106.788 439.38 107.056L439.388 107.057L439.396 107.058C441.282 107.341 443.092 107.485 444.822 107.485C450.634 107.485 455.617 106.1 459.631 103.189C463.593 100.317 466.633 96.1611 468.812 90.8548C470.964 85.6166 472.528 79.3229 473.534 72.0074C474.535 64.7219 475.17 56.4153 475.441 47.0948C475.441 47.0926 475.441 47.0904 475.441 47.0882L476.018 29.32H504.517V104V106H506.517H528.117H530.117V104V9.5V7.5H528.117H455.487H453.556L453.489 9.42962L452.139 47.7696L452.138 47.7734C451.87 55.8214 451.29 62.6188 450.407 68.1815C449.531 73.6978 448.115 77.7365 446.279 80.4568C444.593 82.8709 442.334 84.045 439.287 84.045C438.117 84.045 436.998 83.8894 435.922 83.582L433.557 82.9062L433.378 85.3594L432.156 102.093L390.389 8.68361L389.86 7.5H388.563H366.963H365.665L365.136 8.68579L323.016 103.186ZM377.616 36.1957L389.608 65.145H365.577L377.616 36.1957Z" stroke="#2A335C" stroke-width="4"/>
</g>
<defs>
<filter id="filter0_d_270_439" x="0.770874" y="0.5" width="551.346" height="143.985" filterUnits="userSpaceOnUse" color-interpolation-filters="sRGB">
<feFlood flood-opacity="0" result="BackgroundImageFix"/>
<feColorMatrix in="SourceAlpha" type="matrix" values="0 0 0 0 0 0 0 0 0 0 0 0 0 0 0 0 0 0 127 0" result="hardAlpha"/>
<feOffset dy="15"/>
<feGaussianBlur stdDeviation="10"/>
<feColorMatrix type="matrix" values="0 0 0 0 0 0 0 0 0 0 0 0 0 0 0 0 0 0 0.05 0"/>
<feBlend mode="normal" in2="BackgroundImageFix" result="effect1_dropShadow_270_439"/>
<feBlend mode="normal" in="SourceGraphic" in2="effect1_dropShadow_270_439" result="shape"/>
</filter>
</defs>
</svg>
